<?xml version="1.0" standalone="no"?>
<!DOCTYPE svg PUBLIC "-//W3C//DTD SVG 20010904//EN"
 "http://www.w3.org/TR/2001/REC-SVG-20010904/DTD/svg10.dtd">
<svg version="1.0" xmlns="http://www.w3.org/2000/svg"
 width="300.000000pt" height="198.000000pt" viewBox="0 0 300.000000 198.000000"
 preserveAspectRatio="xMidYMid meet">
<metadata>
Created by potrace 1.10, written by Peter Selinger 2001-2011
</metadata>
<g transform="translate(0.000000,198.000000) scale(0.100000,-0.100000)"
fill="#000000" stroke="none">
<path d="M904 1563 c-6 -19 -13 -37 -95 -253 -28 -74 -64 -171 -81 -215 -16
-44 -36 -95 -44 -113 -19 -43 -18 -52 5 -52 35 0 155 -42 248 -86 196 -94 372
-241 478 -402 49 -74 70 -90 39 -30 -63 124 -221 304 -353 403 -82 62 -223
139 -302 164 l-36 12 46 117 c26 64 71 183 101 264 62 167 57 163 161 132 103
-31 212 -91 298 -166 24 -21 48 -38 53 -38 18 0 -27 53 -90 105 -106 88 -244
150 -375 169 -40 6 -48 5 -53 -11z"/>
<path d="M1985 1565 c-142 -31 -268 -99 -372 -200 -67 -65 -64 -86 4 -29 99
83 210 143 310 169 91 24 96 22 117 -37 30 -87 166 -439 176 -458 8 -15 1 -21
-53 -40 -197 -71 -379 -211 -529 -405 -64 -82 -124 -182 -116 -191 2 -2 27 32
55 74 57 85 158 192 243 257 119 92 320 190 440 216 30 7 57 14 59 15 2 2 -20
63 -48 136 -53 136 -103 267 -162 421 -36 96 -31 93 -124 72z"/>
<path d="M680 1416 c-8 -23 -72 -178 -155 -381 -18 -44 -42 -102 -54 -128 -12
-27 -21 -52 -21 -57 0 -4 21 -11 46 -15 142 -21 355 -91 519 -170 150 -73 247
-135 346 -224 38 -35 72 -61 75 -59 10 10 -175 175 -261 234 -114 77 -195 121
-315 172 -96 41 -262 92 -299 92 -11 0 -22 4 -25 9 -3 4 23 75 58 157 35 82
81 191 102 242 l39 94 37 -5 c26 -4 38 -1 42 10 10 26 7 31 -31 37 -21 4 -50
9 -65 12 -23 5 -30 1 -38 -20z"/>
<path d="M2227 1430 c-58 -10 -61 -12 -53 -38 6 -17 13 -19 45 -15 l37 5 32
-78 c17 -44 63 -153 101 -244 70 -164 73 -179 33 -180 -33 0 -207 -56 -302
-96 -135 -58 -242 -120 -355 -205 -86 -64 -229 -199 -211 -199 4 0 38 27 74
61 115 105 293 211 472 282 94 37 284 93 368 108 39 7 72 17 72 20 0 4 -26 70
-58 146 -32 76 -87 207 -122 291 -34 83 -68 151 -74 151 -6 -1 -33 -5 -59 -9z"/>
<path d="M433 768 c-12 -29 -24 -61 -28 -70 -6 -16 -1 -18 46 -18 82 0 250
-27 384 -60 207 -52 386 -128 514 -217 35 -24 65 -42 68 -39 3 2 -29 31 -70
64 -90 71 -236 148 -377 197 -105 36 -343 97 -433 110 -29 5 -47 12 -44 19 17
45 18 56 3 56 -8 0 -21 2 -29 5 -10 4 -20 -10 -34 -47z"/>
<path d="M2502 813 c-24 -5 -25 -13 -8 -53 5 -13 -15 -20 -111 -39 -162 -32
-251 -56 -368 -98 -102 -36 -256 -109 -310 -146 -48 -33 -136 -109 -131 -114
2 -2 32 16 67 40 79 55 197 114 309 155 172 63 454 121 589 122 38 0 52 3 48
13 -33 82 -53 127 -57 126 -3 -1 -16 -4 -28 -6z"/>
<path d="M399 601 c-6 -14 -26 -59 -45 -99 -20 -41 -34 -76 -31 -78 2 -3 17 0
33 6 47 18 296 24 429 11 135 -14 367 -60 465 -92 36 -11 94 -35 130 -52 86
-42 142 -42 231 -1 107 51 190 76 374 113 212 42 540 53 644 22 19 -6 36 -9
38 -7 2 2 -17 49 -44 103 l-48 100 -45 -4 c-340 -32 -649 -116 -845 -229 -126
-74 -137 -78 -190 -78 -52 0 -63 4 -207 86 -199 111 -491 189 -831 221 -45 4
-49 3 -58 -22z m156 -28 c48 -4 99 -12 223 -33 146 -25 434 -124 307 -106 -22
4 -76 13 -120 20 -127 23 -371 39 -478 31 l-98 -7 16 38 c24 57 44 76 75 69
14 -4 48 -9 75 -12z m2008 -6 c3 -7 12 -28 20 -47 l15 -35 -206 -1 c-174 -1
-230 -6 -352 -27 -80 -14 -156 -29 -170 -32 -23 -6 -23 -5 5 12 64 40 300 102
485 127 186 25 194 26 203 3z"/>
</g>
</svg>
